<svg width="300" height="26" viewBox="0 0 300 26" fill="none" xmlns="http://www.w3.org/2000/svg">
<path d="M20.0074 20.8281L22.0345 25.7255L26.8176 25.7255L16.1409 1.58923L13.891 1.58923L3.24609 25.7255L8.03231 25.7255L10.0276 20.8281L20.0074 20.8281ZM11.6442 16.7561L15.0016 8.77714L18.3908 16.7561L11.6442 16.7561Z" fill="#EB9A60"/>
<path d="M43.9886 25.7239L49.4049 25.7239L44.2114 18.5326C47.1582 17.1638 48.7398 14.4262 48.7398 10.282C48.7398 5.76288 46.5217 1.58771 39.998 1.58771L30.1455 1.58771L30.1455 25.7239L34.674 25.7239L34.674 19.5265H38.8237C39.1101 19.5265 39.4283 19.5265 39.6797 19.4921L43.9886 25.7239ZM34.674 15.4855V5.83167L39.2692 5.83167C42.7857 5.83167 43.9886 8.16 43.9886 10.6603C43.9886 13.5011 42.2797 15.4855 38.6678 15.4855L34.674 15.4855Z" fill="#EB9A60"/>
<path d="M66.889 25.7252H72.3053L67.1118 18.5339C70.0586 17.1651 71.6402 14.4275 71.6402 10.2833C71.6402 5.76417 69.4221 1.58899 62.8984 1.58899L53.0459 1.58899L53.0459 25.7252L57.5743 25.7252L57.5743 19.5278H61.7241C62.0105 19.5278 62.3287 19.5278 62.5801 19.4934L66.889 25.7252ZM57.5743 15.4868V5.83295L62.1696 5.83295C65.6861 5.83295 66.889 8.16128 66.889 10.6616C66.889 13.5023 65.1801 15.4868 61.5682 15.4868L57.5743 15.4868Z" fill="#EB9A60"/>
<path d="M86.9099 1.3468C80.3511 1.3468 75.0303 6.85982 75.0303 13.6729C75.0303 20.4859 80.3511 25.9989 86.9099 25.9989C93.5005 25.9989 98.7895 20.4859 98.7895 13.6729C98.7895 6.85982 93.5005 1.3468 86.9099 1.3468ZM86.9099 21.411C82.9193 21.411 79.686 17.9512 79.686 13.6729C79.686 9.42546 82.9193 5.93468 86.9099 5.93468C90.9005 5.93468 94.1656 9.42546 94.1656 13.6729C94.1656 17.9512 90.9005 21.411 86.9099 21.411Z" fill="#EB9A60"/>
<path d="M122.8 1.58911L117.603 1.58911L111.964 12.2368L106.261 1.58911L101.1 1.58911L109.654 17.5435V25.7253L114.214 25.7253V17.5435L122.8 1.58911Z" fill="#EB9A60"/>
<path d="M136.928 1.3479C130.37 1.3479 125.049 6.86092 125.049 13.674C125.049 20.487 130.37 26 136.928 26C143.519 26 148.808 20.487 148.808 13.674C148.808 6.86092 143.519 1.3479 136.928 1.3479ZM136.928 21.4121C132.938 21.4121 129.705 17.9523 129.705 13.674C129.705 9.42656 132.938 5.93578 136.928 5.93578C140.919 5.93578 144.184 9.42656 144.184 13.674C144.184 17.9523 140.919 21.4121 136.928 21.4121Z" fill="#EB9A60"/>
<path d="M173.932 1.58826L167.405 17.3363L160.878 1.58826L155.968 1.58826L166.358 25.7245L168.449 25.7245L178.874 1.58826L173.932 1.58826Z" fill="#EB9A60"/>
<path d="M187.012 25.7247V1.5885H182.452V25.7247H187.012Z" fill="#EB9A60"/>
<path d="M208.363 21.6144L196.862 21.6144V1.58795L192.334 1.58795V25.7242L208.363 25.7242V21.6144Z" fill="#EB9A60"/>
<path d="M228.255 21.6147L216.754 21.6147V1.58826L212.226 1.58826V25.7245L228.255 25.7245V21.6147Z" fill="#EB9A60"/>
<path d="M246.945 20.8273L248.972 25.7247H253.755L243.078 1.5885H240.828L230.184 25.7247H234.97L236.965 20.8273H246.945ZM238.582 16.7553L241.939 8.77641L245.328 16.7553H238.582Z" fill="#EB9A60"/>
<path d="M277.776 13.6396L267.577 13.6396V17.746L273.248 17.746V20.0089C271.822 21.0338 270.046 21.6494 268.051 21.6494C264.06 21.6494 260.827 18.1587 260.827 13.674C260.827 9.42656 264.06 5.93578 268.051 5.93578C270.492 5.93578 272.646 6.79214 274.136 8.22972L276.984 4.80429C274.832 2.68231 271.79 1.3479 268.051 1.3479C261.524 1.3479 256.203 6.86092 256.203 13.674C256.203 20.487 261.524 26 268.051 26C271.886 26 275.307 24.6278 277.776 22.4714V13.6396Z" fill="#EB9A60"/>
<path d="M299.536 21.4814L286.801 21.4814V16.0715H296.908V11.9617L286.801 11.9617V5.83307L298.871 5.83307V1.58911L282.399 1.58911V25.7253L299.536 25.7253V21.4814Z" fill="#EB9A60"/>
<path d="M167.315 22.9033C167.315 22.752 167.2 22.6282 167.06 22.6282C166.917 22.6282 166.806 22.752 166.806 22.9033C166.806 23.0581 166.917 23.1784 167.06 23.1784C167.2 23.1784 167.315 23.0581 167.315 22.9033Z" fill="black"/>
<path d="M17.7613 20.4761L19.7884 25.377H24.5747L13.8948 1.2373L11.6417 1.2373L1 25.377H5.78622L7.78153 20.4761H17.7613ZM9.39815 16.4076L12.7555 8.42522L16.1447 16.4076H9.39815ZM41.7401 25.377H47.1533L41.9661 18.1856C44.9129 16.8168 46.4882 14.0758 46.4882 9.93846C46.4882 5.41592 44.2764 1.2373 37.7495 1.2373L27.897 1.2373V25.377H32.4286V19.183H36.5752C36.8616 19.183 37.1767 19.183 37.4313 19.1486L41.7401 25.377ZM32.4286 15.1351V5.48127L37.0239 5.48127C40.534 5.48127 41.7401 7.81304 41.7401 10.3133C41.7401 13.1541 40.0312 15.1351 36.4193 15.1351H32.4286ZM64.6433 25.377H70.0564L64.8693 18.1856C67.8161 16.8168 69.3913 14.0758 69.3913 9.93846C69.3913 5.41592 67.1796 1.2373 60.6527 1.2373L50.8002 1.2373V25.377H55.3318V19.183L59.4784 19.183C59.7648 19.183 60.0799 19.183 60.3344 19.1486L64.6433 25.377ZM55.3318 15.1351V5.48127H59.9271C63.4372 5.48127 64.6433 7.81304 64.6433 10.3133C64.6433 13.1541 62.9344 15.1351 59.3225 15.1351H55.3318ZM84.6633 1C78.1045 1 72.7805 6.50959 72.7805 13.3226C72.7805 20.1357 78.1045 25.6521 84.6633 25.6521C91.2507 25.6521 96.5429 20.1357 96.5429 13.3226C96.5429 6.50959 91.2507 1 84.6633 1ZM84.6633 21.0608C80.6695 21.0608 77.4394 17.601 77.4394 13.3226C77.4394 9.07523 80.6695 5.59132 84.6633 5.59132C88.6539 5.59132 91.9158 9.07523 91.9158 13.3226C91.9158 17.601 88.6539 21.0608 84.6633 21.0608ZM120.554 1.2373L115.363 1.2373L109.724 11.885L104.015 1.2373L98.8565 1.2373L107.411 17.1917V25.377H111.968V17.1917L120.554 1.2373ZM134.683 1C128.124 1 122.8 6.50959 122.8 13.3226C122.8 20.1357 128.124 25.6521 134.683 25.6521C141.271 25.6521 146.563 20.1357 146.563 13.3226C146.563 6.50959 141.271 1 134.683 1ZM134.683 21.0608C130.689 21.0608 127.459 17.601 127.459 13.3226C127.459 9.07523 130.689 5.59132 134.683 5.59132C138.674 5.59132 141.936 9.07523 141.936 13.3226C141.936 17.601 138.674 21.0608 134.683 21.0608ZM171.681 1.2373L165.16 16.9819L158.633 1.2373L153.723 1.2373L164.11 25.377H166.204L176.623 1.2373L171.681 1.2373ZM184.767 25.377V1.2373L180.203 1.2373V25.377H184.767ZM206.12 21.2637H194.619V1.2373L190.087 1.2373V25.377H206.12V21.2637ZM226.016 21.2637H214.515V1.2373L209.98 1.2373V25.377H226.016V21.2637ZM244.702 20.4761L246.73 25.377H251.516L240.836 1.2373H238.583L227.941 25.377H232.731L234.726 20.4761L244.702 20.4761ZM236.342 16.4076L239.697 8.42522L243.086 16.4076H236.342ZM275.526 13.2882L265.327 13.2882V17.4015H270.995V19.6576C269.572 20.6859 267.793 21.305 265.798 21.305C261.807 21.305 258.574 17.8108 258.574 13.3226C258.574 9.07523 261.807 5.59132 265.798 5.59132C268.242 5.59132 270.39 6.44424 271.886 7.88182L274.731 4.45295C272.58 2.33097 269.54 1 265.798 1C259.271 1 253.947 6.50959 253.947 13.3226C253.947 20.1357 259.271 25.6521 265.798 25.6521C269.633 25.6521 273.054 24.2799 275.526 22.1235V13.2882ZM297.287 21.1296H284.548V15.7197L294.659 15.7197V11.6099L284.548 11.6099V5.48127L296.622 5.48127V1.2373L280.147 1.2373V25.377L297.287 25.377V21.1296Z" stroke="black" stroke-width="0.566787"/>
</svg>
